#!OML:ASF H:\GeneralSubjects\Female5\Project 1\Capture day 1\Session 1\Female5.ASF
:FULLY-SPECIFIED
:DEGREES
17
root 44.1835 16.07 3.56058 167.885 -83.8185 -156.217
lowerback 7.50005 0.81544 2.19779
upperback -8.42152 1.36295 1.26096
thorax -13.4017 0.428427 -0.0846975
lowerneck -20.3503 -4.70166 -1.96435
upperneck 29.3074 -6.02853 -1.99672
head 13.2393 -3.33375 -1.52702
rclavicle -2.2736e-015 4.77083e-015
rhumerus -49.5148 16.659 -84.5418
rradius 37.1383
rwrist -14.6898
rhand -25.9546 -19.645
rfingers 7.12502
rthumb 0.589546 -49.624
lclavicle -2.2736e-015 4.77083e-015
lhumerus -46.1235 8.71865 67.9298
lradius 39.7742
lwrist 18.9573
lhand 1.02452 32.4767
lfingers 7.12502
lthumb 26.5713 60.6327
rfemur 1.75944 28.9772 33.4104
rtibia -11.2341
rfoot -19.6651 -29.2026
rtoes -2.03004
lfemur -2.91695 -31.4831 -27.2383
ltibia -2.2833
lfoot -17.4034 34.392
ltoes -54.9088
18
root 44.1836 16.0706 3.56438 167.863 -83.836 -156.117
lowerback 7.50016 0.801136 2.24216
upperback -8.43636 1.34817 1.25179
thorax -13.4184 0.415917 -0.116687
lowerneck -20.2035 -4.74584 -2.00135
upperneck 29.1359 -6.0915 -1.94807
head 13.1405 -3.35874 -1.50174
rclavicle -4.07509e-015 -7.95139e-015
rhumerus -49.6282 16.8529 -84.8059
rradius 37.1563
rwrist -15.3522
rhand -25.9776 -19.4829
rfingers 7.12502
rthumb 0.56736 -49.4619
lclavicle -4.07509e-015 -7.95139e-015
lhumerus -46.153 8.89815 67.6362
lradius 39.9179
lwrist 19.6112
lhand 3.2163 31.1974
lfingers 7.12502
lthumb 28.6672 59.0179
rfemur 1.66815 28.9735 33.3683
rtibia -11.2218
rfoot -19.7347 -29.166
rtoes -1.53524
lfemur -2.93736 -31.8304 -27.2056
ltibia -2.31648
lfoot -19.7183 33.5144
ltoes -53.2232
19
root 44.1817 16.0713 3.56796 167.585 -83.8528 -155.846
lowerback 7.5214 0.785342 2.30124
upperback -8.40267 1.33641 1.24952
thorax -13.3911 0.40566 -0.150612
lowerneck -20.2832 -4.76729 -2.10757
upperneck 29.3054 -6.12894 -1.84131
head 13.2363 -3.37265 -1.45827
rclavicle -1.37907e-015 -3.37934e-015
rhumerus -49.678 17.0165 -85.0401
rradius 37.2351
rwrist -16.0134
rhand -26.0103 -19.3585
rfingers 7.12502
rthumb 0.535751 -49.3376
lclavicle -1.37907e-015 -3.37934e-015
lhumerus -46.0879 8.57981 67.9497
lradius 39.8996
lwrist 18.9528
lhand 1.41045 31.2614
lfingers 7.12502
lthumb 26.9406 59.3609
rfemur 1.77258 28.9367 33.4314
rtibia -11.3223
rfoot -19.6348 -29.1959
rtoes -2.22184
lfemur -2.89851 -31.7137 -27.2309
ltibia -2.06713
lfoot -23.9301 30.3957
ltoes -51.7307
20
root 44.1778 16.0721 3.57101 167.569 -83.8473 -155.819
lowerback 7.51828 0.783392 2.32013
upperback -8.38555 1.33594 1.24268
thorax -13.3684 0.403879 -0.168736
lowerneck -20.3671 -4.77248 -2.20377
upperneck 29.4964 -6.15092 -1.72549
head 13.3426 -3.37768 -1.41106
rclavicle -4.69629e-015 5.36719e-015
rhumerus -49.8319 17.3511 -85.4688
rradius 37.4225
rwrist -17.4593
rhand -25.9409 -19.1329
rfingers 7.12502
rthumb 0.602819 -49.1118
lclavicle -4.69629e-015 5.36719e-015
lhumerus -45.923 8.44832 68.1228
lradius 39.7389
lwrist 18.5563
lhand -0.128645 32.1272
lfingers 7.12502
lthumb 25.4671 60.4456
rfemur 1.80726 28.9375 33.4285
rtibia -11.3597
rfoot -19.9323 -29.0322
rtoes -0.848431
lfemur -2.81897 -31.963 -27.2697
ltibia -2.38262
lfoot -24.6455 30.127
ltoes -52.4518
21
root 44.1722 16.0735 3.57408 167.942 -83.8496 -156.187
lowerback 7.53482 0.784686 2.27695
upperback -8.39578 1.33113 1.23136
thorax -13.3914 0.404725 -0.156234
lowerneck -20.3182 -4.77859 -2.14025
upperneck 29.5099 -6.15687 -1.81769
head 13.3316 -3.38758 -1.45731
rclavicle -5.98839e-015 8.15017e-015
rhumerus -49.8382 17.3716 -85.4908
rradius 37.4408
rwrist -17.44
rhand -25.7205 -19.268
rfingers 7.12502
rthumb 0.815722 -49.2462
lclavicle -5.98839e-015 8.15017e-015
lhumerus -45.7565 8.57272 68.0975
lradius 39.4163
lwrist 18.2421
lhand -0.573177 32.4693
lfingers 7.12502
lthumb 25.0413 60.8478
rfemur 1.79027 28.932 33.3385
rtibia -11.3505
rfoot -19.6252 -29.2169
rtoes -2.30151
lfemur -2.71858 -32.1593 -27.3735
ltibia -2.42387
lfoot -25.9284 29.3018
ltoes -51.2088
22
root 44.1679 16.0784 3.5771 168.063 -83.8544 -156.432
lowerback 7.70299 0.775012 2.2496
upperback -8.38049 1.32152 1.22378
thorax -13.4796 0.402476 -0.149642
lowerneck -20.167 -4.81896 -2.10703
upperneck 29.4041 -6.21412 -1.86385
head 13.2521 -3.41701 -1.48168
rclavicle -2.55935e-015 -1.07344e-014
rhumerus -49.8792 17.396 -85.5202
rradius 37.4759
rwrist -17.3152
rhand -23.8496 -18.1791
rfingers 7.12502
rthumb 2.62265 -48.1427
lclavicle -2.55935e-015 -1.07344e-014
lhumerus -45.736 8.52807 68.1924
lradius 39.2241
lwrist 17.7609
lhand -1.05751 32.1001
lfingers 7.12502
lthumb 24.5771 60.5425
rfemur 1.94475 28.8937 33.3403
rtibia -11.3773
rfoot -19.7303 -29.1396
rtoes -1.57774
lfemur -2.54918 -31.5185 -27.5537
ltibia -2.09249
lfoot -28.3602 26.0751
ltoes -51.0411
23
root 44.166 16.0744 3.57964 168.464 -83.8501 -156.727
lowerback 7.60843 0.775684 2.21314
upperback -8.41858 1.31024 1.20672
thorax -13.4654 0.398527 -0.144361
lowerneck -20.2686 -4.79904 -2.12303
upperneck 29.6829 -6.20644 -1.83448
head 13.3923 -3.41357 -1.48021
rclavicle 5.45415e-015 -1.78906e-015
rhumerus -49.9114 17.3538 -85.5049
rradius 37.5236
rwrist -17.1117
rhand -18.9291 -14.518
rfingers 7.12502
rthumb 7.37356 -44.3695
lclavicle 5.45415e-015 -1.78906e-015
lhumerus -45.7998 8.39214 68.3367
lradius 39.1983
lwrist 17.3268
lhand -1.45714 31.3205
lfingers 7.12502
lthumb 24.194 59.8144
rfemur 1.82691 28.9301 33.259
rtibia -11.3801
rfoot -19.6926 -29.1675
rtoes -1.8258
lfemur -2.65494 -32.2508 -27.5105
ltibia -2.44123
lfoot -25.7895 29.6743
ltoes -51.0488
24
root 44.1637 16.0735 3.58085 168.594 -83.8563 -156.81
lowerback 7.55524 0.780252 2.15665
upperback -8.42748 1.30623 1.20782
thorax -13.4435 0.402101 -0.110055
lowerneck -20.394 -4.7629 -2.17278
upperneck 29.9648 -6.18002 -1.74999
head 13.5437 -3.39735 -1.44924
rclavicle -5.59082e-016 1.66979e-014
rhumerus -49.9293 17.2478 -85.4032
rradius 37.5769
rwrist -16.8983
rhand -19.7043 -16.9038
rfingers 7.12502
rthumb 6.62526 -46.7801
lclavicle -5.59082e-016 1.66979e-014
lhumerus -45.753 8.54749 68.2461
lradius 39.1036
lwrist 17.4146
lhand -0.822075 30.8283
lfingers 7.12502
lthumb 24.8027 59.2398
rfemur 1.76366 28.9454 33.2443
rtibia -11.3417
rfoot -19.4676 -29.2906
rtoes -2.98213
lfemur -2.74419 -32.269 -27.4785
ltibia -2.51497
lfoot -24.5117 30.7131
ltoes -51.4536
25
root 44.1583 16.0721 3.58236 168.444 -83.8536 -156.652
lowerback 7.48724 0.783758 2.15628
upperback -8.42364 1.30836 1.21084
thorax -13.3963 0.403677 -0.106147
lowerneck -20.3087 -4.76045 -2.32159
upperneck 29.9447 -6.2055 -1.51498
head 13.5331 -3.39318 -1.33383
rclavicle -1.46107e-014 -1.86858e-014
rhumerus -49.914 17.1295 -85.2897
rradius 37.5639
rwrist -16.6543
rhand -21.045 -19.4691
rfingers 7.12502
rthumb 5.33091 -49.3821
lclavicle -1.46107e-014 -1.86858e-014
lhumerus -45.4841 8.70727 68.2267
lradius 38.5226
lwrist 16.9863
lhand -1.22064 30.4725
lfingers 7.12502
lthumb 24.4207 58.9361
rfemur 1.71021 28.9488 33.2475
rtibia -11.2469
rfoot -19.8024 -29.0766
rtoes -1.59715
lfemur -2.77215 -32.2713 -27.4585
ltibia -2.4597
lfoot -24.412 31.0183
ltoes -51.644
26
root 44.1485 16.0714 3.58379 168.047 -83.8007 -156.305
lowerback 7.43305 0.799653 2.18009
upperback -8.41759 1.33245 1.2259
thorax -13.3547 0.41401 -0.106816
lowerneck -20.1188 -4.79405 -2.4686
upperneck 29.8207 -6.28637 -1.26989
head 13.4571 -3.41235 -1.2177
rclavicle 3.95085e-015 1.64991e-014
rhumerus -49.9506 17.1043 -85.2636
rradius 37.5872
rwrist -16.562
rhand -22.5555 -20.49
rfingers 7.12502
rthumb 3.87239 -50.4345
lclavicle 3.95085e-015 1.64991e-014
lhumerus -45.9381 7.72057 68.8277
lradius 39.1579
lwrist 17.2609
lhand -2.48053 29.8634
lfingers 7.12502
lthumb 23.2124 58.4845
rfemur 1.77257 28.9816 33.3303
rtibia -11.1912
rfoot -20.0432 -28.9064
rtoes -0.17174
lfemur -2.66866 -32.1706 -27.4689
ltibia -2.42886
lfoot -24.7799 30.8163
ltoes -51.7167
27
root 44.137 16.0709 3.58513 167.656 -83.755 -155.976
lowerback 7.37225 0.819451 2.16355
upperback -8.39859 1.3575 1.2508
thorax -13.2948 0.429871 -0.074287
lowerneck -19.9488 -4.87393 -2.49691
upperneck 29.6451 -6.41945 -1.18065
head 13.3527 -3.46196 -1.18999
rclavicle 1.22004e-014 5.96354e-015
rhumerus -49.9953 17.1593 -85.2967
rradius 37.6868
rwrist -16.6513
rhand -22.6415 -18.915
rfingers 7.12502
rthumb 3.78934 -48.8611
lclavicle 1.22004e-014 5.96354e-015
lhumerus -45.5191 9.29068 67.7596
lradius 38.1489
lwrist 17.3895
lhand 0.60754 29.3107
lfingers 7.12502
lthumb 26.1722 57.5265
rfemur 1.90644 29.0069 33.4451
rtibia -11.1841
rfoot -19.9714 -28.8988
rtoes 0.455856
lfemur -2.615 -31.717 -27.4692
ltibia -2.36123
lfoot -24.3364 30.5522
ltoes -52.4773
28
root 44.127 16.0691 3.58775 167.856 -83.7533 -156.2
lowerback 7.30337 0.820371 2.1348
upperback -8.38785 1.35062 1.2364
thorax -13.2391 0.429208 -0.0719812
lowerneck -19.904 -4.9385 -2.4529
upperneck 29.5551 -6.51754 -1.20265
head 13.303 -3.50266 -1.21814
rclavicle -1.57785e-015 -3.95581e-014
rhumerus -49.9584 17.2248 -85.3741
rradius 37.7381
rwrist -16.8247
rhand -19.0585 -15.3052
rfingers 7.12502
rthumb 7.24873 -45.161
lclavicle -1.57785e-015 -3.95581e-014
lhumerus -45.5753 9.43801 67.6406
lradius 38.0114
lwrist 17.3579
lhand 0.506588 29.4895
lfingers 7.12502
lthumb 26.0755 57.7197
rfemur 2.00488 29.0079 33.4569
rtibia -11.2116
rfoot -19.844 -28.9617
rtoes 0.0541306
lfemur -2.91417 -30.8147 -27.4384
ltibia -1.95375
lfoot -23.9954 29.4965
ltoes -52.6387
